<?xml version="1.0" encoding="UTF-8"?>
<svg width="1024px" height="1024px" viewBox="0 0 1024 1024" version="1.1" xmlns="http://www.w3.org/2000/svg" xmlns:xlink="http://www.w3.org/1999/xlink">
    <title>1 - Layer</title>
    <g id="Template---App-Icons" stroke="none" stroke-width="1" fill="none" fill-rule="evenodd">
        <g id="1---Layer" fill="#000000" fill-rule="nonzero">
            <g id="widget.small" transform="translate(128, 128)">
                <path d="M720.582586,47.8226913 C679.244327,6.48443272 620.884433,-5.68434189e-14 551.582058,-5.68434189e-14 L215.202111,-5.68434189e-14 C147.115567,-5.68434189e-14 88.7556728,6.48443272 47.4174142,47.8226913 C6.07915567,89.1609499 -5.68434189e-14,146.71029 -5.68434189e-14,214.796834 L-5.68434189e-14,551.582058 C-5.68434189e-14,620.884433 6.07915567,678.433773 47.4174142,719.772032 C88.7556728,761.11029 147.115567,767.594723 216.012665,767.594723 L551.582058,767.594723 C620.884433,767.594723 679.244327,761.11029 720.582586,719.772032 C761.920844,678.433773 768,620.884433 768,551.582058 L768,216.012665 C768,146.71029 761.920844,88.7556728 720.582586,47.8226913 Z M702.750396,204.664908 L702.750396,562.524538 C702.750396,604.268074 697.481794,647.632718 672.759894,672.354617 C648.443272,696.67124 604.673351,702.345119 562.929815,702.345119 L205.070185,702.345119 C163.326649,702.345119 119.556728,696.67124 94.8348285,672.354617 C70.5182058,647.632718 65.2496042,604.268074 65.2496042,562.524538 L65.2496042,205.880739 C65.2496042,163.326649 70.5182058,119.556728 94.8348285,95.2401055 C119.556728,70.5182058 163.731926,65.2496042 206.286016,65.2496042 L562.929815,65.2496042 C604.673351,65.2496042 648.443272,70.9234828 672.759894,95.2401055 C697.481794,119.962005 702.750396,162.921372 702.750396,204.664908 Z" id="Shape"></path>
                <path d="M163.731926,618.858047 L603.862797,618.858047 C618.047493,618.858047 629.395251,607.915567 629.395251,593.730871 C629.395251,579.951451 618.047493,568.603694 603.862797,568.603694 L163.731926,568.603694 C149.952507,568.603694 138.604749,579.951451 138.604749,593.730871 C138.604749,607.915567 149.952507,618.858047 163.731926,618.858047 Z M197.775198,313.279156 L285.720317,313.279156 C320.574142,313.279156 344.890765,289.36781 344.890765,254.108707 L344.890765,192.101319 C344.890765,156.842216 320.574142,132.525594 285.720317,132.525594 L197.775198,132.525594 C162.516095,132.525594 138.199472,156.842216 138.199472,192.101319 L138.199472,254.108707 C138.199472,289.36781 162.516095,313.279156 197.775198,313.279156 Z" id="Shape"></path>
            </g>
        </g>
    </g>
</svg>